<?xml version="1.0" encoding="UTF-8"?>
<svg version="1.1" xmlns="http://www.w3.org/2000/svg" width="512" height="512">
<path d="M0 0 C1.20261719 -0.00668677 1.20261719 -0.00668677 2.42952967 -0.01350862 C3.30461097 -0.01332426 4.17969228 -0.01313989 5.0812912 -0.01294994 C6.48254313 -0.01846498 6.48254313 -0.01846498 7.91210318 -0.02409142 C11.05016976 -0.03512624 14.18820323 -0.03897181 17.32628632 -0.04278088 C19.57338822 -0.04904578 21.82048908 -0.05569261 24.06758881 -0.0626936 C31.45524626 -0.08373681 38.84290392 -0.09409766 46.23058319 -0.10406017 C48.77486939 -0.10810792 51.31915549 -0.11222485 53.86344147 -0.11641026 C64.44927176 -0.13328067 75.0350999 -0.14791421 85.62094116 -0.155159 C88.36679841 -0.15706875 91.11265566 -0.1589891 93.85851288 -0.16094494 C94.88216038 -0.16167055 94.88216038 -0.16167055 95.92648762 -0.16241082 C106.96947226 -0.17070252 118.01234826 -0.19602491 129.05528551 -0.22852562 C140.40532095 -0.26165636 151.7552819 -0.27928094 163.10537291 -0.28280324 C169.47291155 -0.28515136 175.84027855 -0.29408086 182.2077713 -0.31926441 C188.20289185 -0.34259157 194.19772832 -0.34675949 200.19288254 -0.33650303 C202.38738323 -0.33600866 204.58189813 -0.34229976 206.77635574 -0.35605907 C228.06876916 -0.48203909 228.06876916 -0.48203909 237.94933319 4.13422108 C239.10948944 4.67562733 240.26964569 5.21703358 241.46495819 5.77484608 C249.74322293 10.64719618 256.22341268 15.42594266 260.44933319 24.19672108 C263.9577442 30.48302464 269.52476939 32.00381712 275.90636444 34.50140858 C292.34705355 40.93955941 303.61419774 54.11554306 310.69933319 69.94672108 C315.18039822 81.59466799 316.39417825 92.98768538 316.33028412 105.38383961 C316.33374968 106.8701636 316.33852023 108.35648501 316.34446585 109.84280115 C316.35688238 113.88684908 316.35084857 117.93068211 316.3415072 121.97473037 C316.33467826 126.35178603 316.3452169 130.72880648 316.35344696 135.10585499 C316.36674605 143.66489467 316.36392356 152.22385517 316.35520904 160.78289788 C316.34841735 167.7432542 316.34752218 174.70358842 316.35078049 181.66394711 C316.35124019 182.65684945 316.35169989 183.64975179 316.35217351 184.67274209 C316.35313275 186.69019465 316.35410539 188.7076472 316.35509129 190.72509975 C316.3636341 209.61727256 316.35382871 228.5094016 316.33769019 247.40156723 C316.3242901 263.58875956 316.32661472 279.77588733 316.34044647 295.9630785 C316.35652549 314.78886796 316.36280805 333.61461912 316.35360968 352.44041449 C316.3526541 354.45050275 316.35171098 356.46059101 316.35078049 358.47067928 C316.35031766 359.45951847 316.34985483 360.44835766 316.34937798 361.46716167 C316.3467949 368.4133344 316.35114439 375.35948271 316.35821915 382.30565166 C316.36666027 390.77913537 316.3642994 399.25253577 316.34837691 407.72601002 C316.3405289 412.04385533 316.33734286 416.36156209 316.34732437 420.67940617 C316.35634446 424.6414843 316.35121979 428.60329707 316.33539172 432.56535155 C316.33207453 433.98914484 316.3336678 435.41296112 316.34101908 436.83673929 C316.43002784 455.52765992 312.65592271 472.18424745 300.94933319 487.13422108 C300.41566132 487.83289295 299.88198944 488.53156483 299.33214569 489.25140858 C289.53681897 501.29637971 274.26559627 509.75496313 258.94933319 512.13422108 C250.33694974 512.84583255 241.66949321 512.69986365 233.03466964 512.6717788 C229.51874838 512.6647246 226.00291646 512.68083047 222.4870224 512.69377613 C215.62010481 512.7153107 208.75335358 512.71531781 201.88641338 512.70715059 C196.30705531 512.7008318 190.7277455 512.70200472 185.14838791 512.70842266 C184.35213562 512.70932432 183.55588334 512.71022597 182.73550219 512.71115495 C181.11769058 512.71300624 179.49987898 512.7148688 177.8820674 512.71674251 C162.74908248 512.73328102 147.6161911 512.72463207 132.48321183 512.70775693 C118.63542307 512.69302979 104.78785068 512.70773758 90.94008975 512.73652709 C76.70596736 512.76589908 62.47194493 512.77690196 48.23779356 512.76734489 C46.629236 512.76632236 45.02067842 512.76532775 43.41212082 512.76436138 C42.62074974 512.76388499 41.82937866 512.7634086 41.01402663 512.76291778 C35.43623437 512.76075257 29.85853679 512.77056214 24.28076553 512.78513241 C17.49149907 512.80262138 10.70250949 512.80258654 3.91325407 512.77978075 C0.44928572 512.76861287 -3.01419413 512.76553331 -6.47814178 512.78408146 C-10.22932123 512.79990218 -13.97914846 512.78516306 -17.73026276 512.76241016 C-19.37935086 512.78016376 -19.37935086 512.78016376 -21.06175387 512.79827601 C-28.37840912 512.70761926 -28.37840912 512.70761926 -31.76209831 509.82152176 C-33.52151484 506.15227077 -33.12720645 504.00976379 -32.05066681 500.13422108 C-30.43981052 497.99172471 -29.58691685 497.22923007 -26.92446059 496.75751489 C-26.09476628 496.75670044 -25.26507197 496.75588598 -24.4102354 496.75504684 C-22.97210059 496.74271213 -22.97210059 496.74271213 -21.50491256 496.73012823 C-19.92149226 496.73944595 -19.92149226 496.73944595 -18.30608368 496.74895191 C-17.18633787 496.74371622 -16.06659207 496.73848052 -14.91291457 496.73308617 C-11.14060882 496.71905787 -7.36864188 496.72644342 -3.59632111 496.73358631 C-0.89940386 496.72784715 1.79748497 496.72091274 4.4943924 496.71243763 C10.31383943 496.69643993 16.13321682 496.69118899 21.9526844 496.69296551 C30.38193357 496.6953485 38.81107151 496.67936085 47.24029162 496.65851296 C60.93569644 496.6249567 74.63109133 496.60331745 88.32653046 496.59051991 C89.5565917 496.58936567 89.5565917 496.58936567 90.81150266 496.58818812 C94.1332575 496.58508648 97.45501236 496.58200365 100.77676724 496.57894808 C109.8971986 496.57043547 119.01762647 496.55953014 128.13805389 496.54755116 C128.95376086 496.54648314 129.76946782 496.54541512 130.60989318 496.54431473 C144.24028077 496.52618365 157.87064493 496.50016466 171.50100964 496.46942002 C179.90098541 496.45091907 188.30090837 496.43995354 196.70090481 496.43889809 C202.46785894 496.43778942 208.23477701 496.42978768 214.00171588 496.41651445 C217.32292607 496.40914 220.64399117 496.40607449 223.96521759 496.40963268 C256.23408706 496.51613261 256.23408706 496.51613261 283.57433319 480.75922108 C296.63359666 466.32529829 299.25794977 451.93775906 299.22399139 432.96698475 C299.22834596 431.3511529 299.23353157 429.73532311 299.23947906 428.11949635 C299.25280132 423.75569493 299.25345525 419.39198049 299.25091577 415.02816272 C299.24984129 411.37296146 299.25474165 407.71777746 299.25952119 404.06257993 C299.27059329 395.43206877 299.27106695 386.80160113 299.26500702 378.17108631 C299.25897077 369.2960607 299.27127468 360.42119376 299.29257709 351.54619521 C299.31024678 343.90083284 299.31618595 336.25552073 299.31293935 328.61013871 C299.31113464 324.05524266 299.31368073 319.50045978 299.32765388 314.94558239 C299.3403151 310.65841419 299.33821055 306.37149158 299.325243 302.08432674 C299.32289548 300.52075966 299.32554554 298.95717483 299.33386612 297.39362812 C299.41911319 280.1138178 296.49901585 264.10592876 284.21495819 251.16547108 C270.32647539 238.71372788 255.08139385 235.81943406 236.99523163 235.87884998 C235.62879987 235.87609301 234.26236972 235.87240885 232.89594269 235.86787891 C229.97465849 235.859826 227.05345055 235.85758346 224.13215637 235.85982609 C219.49801262 235.86268511 214.86401813 235.84821083 210.2299118 235.83084583 C197.05942255 235.78406619 183.88894494 235.75989563 170.71837616 235.7533617 C163.42781398 235.74959245 156.13742259 235.73141774 148.8469336 235.69826734 C144.25555036 235.67823387 139.66461301 235.67559286 135.07320452 235.68654752 C132.19780549 235.68918401 129.32265778 235.67500996 126.44732475 235.65646648 C124.51205296 235.6487445 122.57673278 235.66046572 120.64148712 235.67314625 C101.27017413 235.49388612 84.81091851 228.30460056 70.73058319 215.23578358 C62.20248139 206.23797828 55.96868336 194.59842262 49.21593475 184.23749256 C44.55252842 177.08665559 39.87596129 169.94568344 35.05480194 162.89984608 C34.3653952 161.89083241 33.67598846 160.88181873 32.96569061 159.84222889 C24.33080918 148.2454127 11.83043825 142.80573697 -2.05066681 140.13422108 C-6.45596318 139.74270991 -10.82728845 139.72295378 -15.24793243 139.74603748 C-16.50812698 139.74078053 -17.76832153 139.73552357 -19.0667038 139.73010731 C-22.48620169 139.71657072 -25.90542441 139.72167495 -29.32492638 139.73124456 C-32.92675061 139.73891286 -36.52855343 139.73177587 -40.13037872 139.72708607 C-46.17562785 139.72164916 -52.22076653 139.72876552 -58.26599884 139.7431078 C-65.22569268 139.75943038 -72.18512274 139.7541404 -79.1448102 139.73762858 C-85.15200679 139.72395445 -91.15912462 139.72212282 -97.16633177 139.72994459 C-100.74027286 139.73458874 -104.31409053 139.73533692 -107.88802338 139.72533512 C-111.876638 139.71494974 -115.86480768 139.72939889 -119.85340118 139.74603748 C-121.01635208 139.73996479 -122.17930298 139.7338921 -123.37749481 139.72763538 C-139.03281201 139.84787756 -153.31829671 144.53205538 -164.73035431 155.54047108 C-179.70383033 172.27849814 -179.64246107 191.52852805 -179.55237579 212.79510975 C-179.55616517 215.35762802 -179.56167029 217.92014423 -179.56874847 220.48265553 C-179.58119987 226.68393339 -179.57519611 232.88494911 -179.56007289 239.08621355 C-179.54310152 246.32425174 -179.54643685 253.56224033 -179.55016697 260.80029229 C-179.55602792 273.72210859 -179.54194198 286.64382705 -179.51721954 299.56561756 C-179.49328903 312.07509494 -179.48622338 324.58444171 -179.49671173 337.09393787 C-179.50814473 350.75436613 -179.5100228 364.41473419 -179.49561363 378.07516176 C-179.49408797 379.53415699 -179.49256761 380.99315224 -179.49105263 382.45214748 C-179.49029481 383.16979531 -179.489537 383.88744314 -179.48875622 384.62683788 C-179.48403294 389.660382 -179.48585076 394.69389905 -179.49011803 399.72744274 C-179.49558527 406.51148418 -179.48471124 413.2953196 -179.46316338 420.07933712 C-179.45762062 422.56205992 -179.45710699 425.04480007 -179.46211624 427.52752399 C-179.49591294 446.68692951 -178.61459655 462.49360427 -166.80066681 478.44672108 C-150.90575779 493.98038217 -132.81142755 496.42713438 -111.61781693 496.40861607 C-109.13707455 496.40763402 -106.65674589 496.42078012 -104.17606354 496.43759632 C-97.13543368 496.48341686 -90.0948593 496.50852062 -83.05408478 496.51508045 C-78.71947777 496.52008849 -74.38532288 496.54427416 -70.05086899 496.58040714 C-68.4074614 496.59019516 -66.76399167 496.59254251 -65.12056351 496.58723545 C-62.83293274 496.58018008 -60.54666466 496.59740399 -58.2591629 496.62006092 C-56.96014038 496.62291096 -55.66111786 496.62576099 -54.32273102 496.6286974 C-51.05066681 497.13422108 -51.05066681 497.13422108 -48.6313858 498.94760609 C-46.32065709 502.14404648 -46.50163288 504.29098355 -47.05066681 508.13422108 C-48.56253815 510.32062244 -48.56253815 510.32062244 -51.05066681 512.13422108 C-53.94779525 512.52898972 -56.46460068 512.68161487 -59.3607254 512.6517992 C-60.61534073 512.66231312 -60.61534073 512.66231312 -61.89530182 512.67303944 C-64.66357318 512.69065519 -67.43082227 512.67897358 -70.19910431 512.66547108 C-72.13283229 512.6681675 -74.06655894 512.67205117 -76.00028229 512.67706776 C-80.06066499 512.68296976 -84.12069608 512.67438663 -88.1810379 512.65570545 C-93.34989857 512.63306781 -98.51792142 512.64593738 -103.68675041 512.66999531 C-107.68660342 512.68456505 -111.68626354 512.67979395 -115.68612289 512.66948414 C-117.58923825 512.66683962 -119.49237186 512.67000528 -121.39546585 512.67940235 C-142.86204845 512.76204422 -160.74372623 507.69000861 -176.61560822 492.58539295 C-189.41465122 479.64263834 -196.16132366 461.73577209 -196.18209457 443.69253254 C-196.18593572 442.43382328 -196.18977686 441.17511401 -196.19373441 439.87826204 C-196.19295431 438.49430269 -196.19207555 437.1103434 -196.1911087 435.72638416 C-196.19369462 434.24610425 -196.19670841 432.76582504 -196.2001121 431.28554678 C-196.20815892 427.22575134 -196.20997038 423.1659736 -196.21070957 419.10617113 C-196.2125642 414.7242301 -196.22011365 410.34229818 -196.22684479 405.96036243 C-196.24041272 396.38156414 -196.24645058 386.80277004 -196.25085545 377.22396374 C-196.25362079 371.23885351 -196.2578587 365.25374489 -196.26235962 359.26863575 C-196.27455086 342.6864148 -196.28485008 326.10419513 -196.28823471 309.5219698 C-196.28845428 308.46114902 -196.28867384 307.40032825 -196.28890006 306.30736139 C-196.28911834 305.24404871 -196.28933662 304.18073602 -196.28956151 303.08520174 C-196.29000497 300.93064308 -196.29045153 298.77608442 -196.29090118 296.62152576 C-196.29112261 295.55279761 -196.29134404 294.48406946 -196.29157218 293.38295561 C-196.29551793 276.07615679 -196.3129658 258.76940012 -196.33626071 241.46261758 C-196.36000307 223.67931671 -196.37243789 205.89603698 -196.37360263 188.11272001 C-196.37451783 178.13403908 -196.38023096 168.15541308 -196.39842224 158.17674732 C-196.41386227 149.67748621 -196.41892077 141.178297 -196.41068414 132.67902452 C-196.40679127 128.34704338 -196.40764015 124.01520687 -196.42174149 119.68324375 C-196.43456276 115.70794569 -196.43321158 111.73289969 -196.42115077 107.75760156 C-196.41920789 106.32888337 -196.42220605 104.9001468 -196.43099514 103.47145432 C-196.50345043 90.88421032 -195.45002383 78.00019154 -189.30066681 66.75922108 C-188.95141144 66.09350086 -188.60215607 65.42778065 -188.2423172 64.74188709 C-185.3742832 59.41683687 -182.10771566 54.63266182 -178.05066681 50.13422108 C-177.55566681 49.54769764 -177.06066681 48.9611742 -176.55066681 48.35687733 C-165.91649663 36.6327047 -150.56417103 29.9368567 -135.05066681 28.13422108 C-131.93972375 28.01796616 -128.83487594 28.04081581 -125.72229767 28.07172108 C-123.8414344 28.0811584 -121.96056986 28.09034282 -120.07970428 28.09930897 C-119.09162718 28.10560322 -118.10355007 28.11189747 -117.08553123 28.11838245 C-111.82847458 28.14550427 -106.57144576 28.13547456 -101.31433868 28.13031483 C-94.63584853 28.12410022 -87.95820693 28.12963434 -81.27991486 28.18549061 C-75.87027652 28.22975014 -70.46219235 28.23031752 -65.05246925 28.20135975 C-62.9947763 28.19828019 -60.93699435 28.21116749 -58.87950706 28.24042225 C-48.12481092 28.91235762 -48.12481092 28.91235762 -38.54264069 25.18915272 C-36.99830577 22.87458545 -36.05873687 20.7151224 -35.05066681 18.13422108 C-27.16322939 8.3270661 -12.81956561 0.03319816 0 0 Z M-22.45301056 27.87640858 C-28.11445338 35.87717618 -32.20619637 44.53866586 -32.14832306 54.43500233 C-32.1451004 55.41146717 -32.14187775 56.38793201 -32.13855743 57.3939867 C-32.13017853 58.40138905 -32.12179962 59.40879139 -32.11316681 60.44672108 C-32.10865509 61.47345936 -32.10414337 62.50019764 -32.09949493 63.5580492 C-32.08774865 66.0834999 -32.07132245 68.60883013 -32.05066681 71.13422108 C-31.12467084 71.13568764 -30.19867487 71.1371542 -29.24461842 71.1386652 C-6.67454388 71.17532043 15.89538295 71.23484884 38.46533489 71.31812382 C49.38016939 71.35787045 60.29493225 71.39028517 71.20983124 71.40521717 C80.72736476 71.41825637 90.24474035 71.44527887 99.76218492 71.48883414 C104.79789791 71.51139793 109.83341647 71.52713481 114.86918449 71.52610493 C119.61759321 71.52535531 124.36557298 71.54342669 129.11387062 71.57538891 C130.8483395 71.58384595 132.58285672 71.58566665 134.31733704 71.58002377 C151.95924332 71.5303126 166.43427776 75.28003866 179.58995819 87.61859608 C190.07111027 98.79386419 194.06266091 112.1074442 194.15465546 127.06512928 C194.16455505 128.06072361 194.17445465 129.05631794 194.18465424 130.08208179 C194.21619162 133.36636461 194.24099602 136.65066188 194.26573944 139.93500233 C194.28631566 142.21472514 194.30731231 144.4944442 194.32871246 146.77415943 C194.38386406 152.7696983 194.43330384 158.76527122 194.48155975 164.76086903 C194.54066537 171.95709672 194.60685531 179.15326231 194.67185974 186.34943867 C194.76978229 197.27766149 194.85869794 208.20592444 194.94933319 219.13422108 C224.15433319 219.62922108 224.15433319 219.62922108 253.94933319 220.13422108 C253.97511444 211.50652576 254.00089569 202.87883045 254.02745819 193.98968983 C254.05581244 187.84119905 254.08667092 181.69276099 254.12115669 175.5443058 C254.16553243 167.57289307 254.20393501 159.60159534 254.22032928 151.63007069 C254.2333253 145.32006907 254.26023696 139.01030758 254.30394626 132.70044118 C254.32660783 129.35853045 254.3422411 126.01691638 254.34121704 122.67492199 C254.34357003 118.94638499 254.37051663 115.21879674 254.40343475 111.49042225 C254.39840439 110.37911945 254.39337402 109.26781666 254.38819122 108.12283802 C254.40210403 107.10901554 254.41601685 106.09519306 254.43035126 105.05064869 C254.43403843 104.1684928 254.4377256 103.28633692 254.44152451 102.37744904 C254.94933319 100.13422108 254.94933319 100.13422108 256.83430862 98.33158302 C259.45337896 96.84886968 260.76061723 96.97134055 263.69933319 97.44672108 C264.49855194 97.56660389 265.29777069 97.6864867 266.12120819 97.81000233 C266.72448944 97.91699451 267.32777069 98.0239867 267.94933319 98.13422108 C268.84858194 101.22186009 269.08423371 103.99766423 269.10755157 107.20886707 C269.1222348 108.74428402 269.1222348 108.74428402 269.13721466 110.31071949 C269.14297012 111.42777775 269.14872559 112.54483601 269.15465546 113.69574451 C269.16455505 114.87651066 269.17445465 116.0572768 269.18465424 117.27382374 C269.21081629 120.50694215 269.23268896 123.74005548 269.25265622 126.97321701 C269.27454785 130.35383648 269.30192097 133.73441145 269.32871246 137.114995 C269.37859644 143.51450272 269.42355117 149.91403519 269.46673483 156.31359124 C269.51614395 163.60015269 269.57104843 170.88666949 269.62641442 178.17318773 C269.74016851 193.16015722 269.84702182 208.14716878 269.94933319 223.13422108 C270.96036102 223.65661366 271.97138885 224.17900623 273.01305389 224.71722889 C274.36306923 225.42362544 275.71291367 226.13034866 277.06261444 226.83734608 C277.72619965 227.17910877 278.38978485 227.52087147 279.0734787 227.87299061 C287.0754145 232.08376087 293.58889672 237.73283579 299.94933319 244.13422108 C300.04307874 224.59225787 300.1134597 205.05034075 300.15658188 185.50819874 C300.17714298 176.43294188 300.20513902 167.35782533 300.251091 158.28265858 C300.2911576 150.36598674 300.3168128 142.4494166 300.32568717 134.53264618 C300.33086863 130.34686333 300.34290956 126.16137124 300.37225342 121.97568226 C300.39973724 118.02266949 300.40771297 114.07006264 300.40176392 110.11696339 C300.40284963 108.67881012 300.41060506 107.24064091 300.42615509 105.8025713 C300.60619068 88.26826378 296.93579795 72.22046344 284.51183319 59.19672108 C278.09794452 52.89363288 278.09794452 52.89363288 269.94933319 50.13422108 C269.92427704 50.93118397 269.89922089 51.72814686 269.87340546 52.54926014 C269.7573453 56.1610733 269.63466388 59.7726321 269.51183319 63.38422108 C269.45285858 65.2656078 269.45285858 65.2656078 269.39269257 67.18500233 C269.35079803 68.39027576 269.3089035 69.5955492 269.26573944 70.83734608 C269.22908173 71.94755116 269.19242401 73.05775623 269.15465546 74.20160389 C268.98222415 76.66443957 268.6533788 78.77905072 267.94933319 81.13422108 C266.53630081 81.38482297 265.11853845 81.60884029 263.69933319 81.82172108 C262.91042694 81.94933826 262.12152069 82.07695545 261.30870819 82.20843983 C258.18099217 82.11005141 257.15911016 81.32767599 254.94933319 79.13422108 C254.45104218 76.41376209 254.45104218 76.41376209 254.44542694 73.13812733 C254.42673553 71.93865467 254.40804413 70.73918201 254.38878632 69.5033617 C254.38814178 68.2471703 254.38749725 66.99097889 254.38683319 65.69672108 C254.33388445 51.3627417 253.16544758 38.18078144 243.13292694 27.13422108 C229.31317563 14.17994914 212.33849404 14.83565067 194.57604218 14.87543201 C192.53303147 14.87271781 190.49002175 14.86915448 188.44701385 14.8648119 C182.92854218 14.8557373 177.41014575 14.85921158 171.89167285 14.86557007 C166.10059334 14.87065498 160.30952002 14.86593178 154.51844025 14.86279774 C144.79690654 14.85916563 135.07540328 14.86393766 125.35387421 14.87347889 C114.1328104 14.88436503 102.91181927 14.88083363 91.69075722 14.86982608 C82.03521525 14.86073533 72.3796951 14.85947658 62.72415024 14.86470342 C56.96659757 14.86781289 51.209079 14.86826057 45.45152855 14.86163044 C40.0382842 14.85583147 34.62513313 14.85990044 29.2118988 14.87141895 C27.23145261 14.87405179 25.25099849 14.87332412 23.2705555 14.86889362 C-1.7796288 14.80937351 -1.7796288 14.80937351 -22.45301056 27.87640858 Z M-167.05066681 62.13422108 C-177.75815603 74.9955156 -180.39260602 88.78636011 -180.24597931 105.14203358 C-180.24314941 106.34866657 -180.24031952 107.55529957 -180.23740387 108.7984972 C-180.22628822 112.61884317 -180.20119954 116.43894702 -180.17566681 120.25922108 C-180.16562588 122.86338434 -180.15650198 125.4675513 -180.14832306 128.07172108 C-180.12637714 134.42596912 -180.09298618 140.78007779 -180.05066681 147.13422108 C-179.57589905 146.7257494 -179.10113129 146.31727772 -178.61197662 145.89642811 C-177.98604614 145.35872791 -177.36011566 144.82102772 -176.71521759 144.26703358 C-176.09607483 143.7348119 -175.47693207 143.20259022 -174.8390274 142.65424061 C-159.07530107 129.25583987 -142.51798119 124.23953228 -122.05066681 123.13422108 C-121.84763947 121.75363514 -121.84763947 121.75363514 -121.64051056 120.34515858 C-118.91653365 104.32752188 -112.3285585 90.52914371 -98.73816681 80.82172108 C-89.77187272 75.27490997 -80.72550009 72.14181505 -70.21863556 71.81781483 C-68.9263504 71.7759203 -67.63406525 71.73402576 -66.30261993 71.6908617 C-64.94780488 71.65105756 -63.59298714 71.61134516 -62.23816681 71.57172108 C-60.86380576 71.52848384 -59.48945657 71.48486796 -58.11511993 71.4408617 C-54.76041777 71.33492374 -51.40555538 71.2340816 -48.05066681 71.13422108 C-47.72066681 62.22422108 -47.39066681 53.31422108 -47.05066681 44.13422108 C-58.18680236 44.06621574 -69.32279807 44.01127306 -80.459095 43.97878456 C-85.63113676 43.96318509 -90.80302803 43.9420522 -95.97498322 43.90790272 C-100.97410545 43.87510416 -105.9730837 43.85732514 -110.9723053 43.84958935 C-112.8715135 43.84408241 -114.77071459 43.83332957 -116.66986084 43.81703091 C-136.86557782 43.65073563 -152.60311063 46.87306532 -167.05066681 62.13422108 Z M-99.51160431 103.00140858 C-103.1049049 107.98095712 -104.95861682 112.70930774 -105.59607697 118.79462147 C-105.68233337 119.60677616 -105.76858978 120.41893085 -105.85746002 121.2556963 C-105.95309738 122.18556606 -105.95309738 122.18556606 -106.05066681 123.13422108 C-104.76852798 123.14008732 -103.48638916 123.14595356 -102.16539764 123.15199757 C-90.02912991 123.20943477 -77.89303775 123.28230467 -65.75694942 123.36993599 C-59.51901247 123.41449183 -53.28113861 123.45378002 -47.04309845 123.48065662 C-41.01291188 123.50683772 -34.98297006 123.54734321 -28.95293617 123.59740734 C-26.66271849 123.61397648 -24.37245856 123.62555225 -22.08218956 123.63183498 C9.24453509 123.72639259 9.24453509 123.72639259 22.32433319 130.88422108 C22.9907785 131.23492664 23.65722382 131.58563221 24.34386444 131.94696522 C40.63811588 140.74324058 49.58778734 154.71581513 59.38683319 169.88422108 C61.54928892 173.21424212 63.71544882 176.54184222 65.88292694 179.86859608 C66.40435776 180.66909382 66.92578857 181.46959156 67.46302032 182.29434681 C70.58844946 187.08161177 73.73943779 191.84872593 76.97277069 196.56390858 C77.64614471 197.54601307 78.31951874 198.52811756 79.01329803 199.5399828 C86.68430449 209.81893797 99.25395337 217.15080225 111.94933319 219.13422108 C117.09640386 219.40407429 122.23512742 219.36763136 127.38683319 219.32953358 C128.87755391 219.32579754 130.3682771 219.32295336 131.85900116 219.32095814 C135.75850607 219.3133681 139.657859 219.29376012 143.55730438 219.27155018 C147.54603266 219.2509913 151.5347858 219.24193507 155.52355194 219.23187733 C163.33221454 219.21050925 171.14075246 219.17643014 178.94933319 219.13422108 C179.04223511 206.15549617 179.1132007 193.17685109 179.15658188 180.19786072 C179.17740837 174.17042404 179.2056359 168.14321578 179.251091 162.11591053 C179.29472463 156.29333549 179.3185074 150.47097943 179.32884216 144.64825344 C179.33620212 142.4328139 179.35057407 140.2173856 179.37225342 138.00203991 C179.53168784 121.0264842 178.52551265 109.07678088 166.25792694 96.38422108 C158.37672658 89.06988199 149.54751938 86.98477496 139.07639313 86.98705006 C137.71696015 86.98153502 137.71696015 86.98153502 136.33006388 86.97590858 C133.28639989 86.96487589 130.24277004 86.96102857 127.19908905 86.95721912 C125.01932924 86.95095409 122.8395705 86.94430726 120.65981293 86.9373064 C113.4946085 86.91626595 106.32940385 86.9059031 99.16417694 86.89593983 C96.69663799 86.89189208 94.22909916 86.88777515 91.76156044 86.88358974 C80.16713382 86.86453705 68.57271356 86.85030694 56.97827429 86.84197778 C55.64416436 86.84100926 54.31005444 86.84003501 52.97594452 86.83905506 C52.31418485 86.83857132 51.65242517 86.83808758 50.97061218 86.83758918 C40.92546683 86.82981116 30.88042018 86.80798342 20.83531952 86.77753162 C9.16219593 86.74226031 -2.51084755 86.72093278 -14.1840257 86.71719676 C-20.35982735 86.71484804 -26.53545208 86.70591062 -32.71120644 86.68073559 C-38.52493503 86.65741957 -44.33837067 86.65323602 -50.15213394 86.66349697 C-52.28094012 86.6639916 -54.4097609 86.6576928 -56.53852272 86.64394093 C-74.38483624 86.5351443 -87.54940641 88.63584671 -99.51160431 103.00140858 Z " fill="#000000" transform="translate(196.05066680908203,-0.13422107696533203)"/>
<path d="M0 0 C1.1426683 -0.01134979 2.28533661 -0.02269958 3.46263123 -0.03439331 C4.71726166 -0.03146271 5.97189209 -0.0285321 7.26454163 -0.0255127 C8.59838575 -0.03285159 9.9322235 -0.0414373 11.26605225 -0.05117798 C14.89005063 -0.07342188 18.51382185 -0.07632326 22.13787913 -0.07443047 C25.16231771 -0.0743109 28.18670792 -0.08286945 31.21113306 -0.09120798 C38.34583062 -0.11045238 45.48041116 -0.11332212 52.61512756 -0.10656738 C59.97764194 -0.0999253 67.33965549 -0.1227948 74.70206827 -0.15988111 C81.02148898 -0.1905596 87.34074843 -0.2019402 93.66024214 -0.1980443 C97.43538049 -0.19597485 101.21012916 -0.20148541 104.98519707 -0.22593689 C108.53537533 -0.24817156 112.0847384 -0.24635494 115.63492012 -0.22600937 C117.55930026 -0.22096389 119.48369536 -0.24064158 121.40797424 -0.26101685 C123.12620644 -0.24420364 123.12620644 -0.24420364 124.87915039 -0.22705078 C125.87447753 -0.22776329 126.86980467 -0.2284758 127.89529324 -0.2292099 C131.5083025 0.63479967 132.55351691 2.31580085 134.50306702 5.39440918 C135.00306702 8.45690918 135.00306702 8.45690918 134.50306702 11.39440918 C132.63596791 13.69716474 131.14658961 15.07264789 128.50306702 16.39440918 C126.76361593 16.4918451 125.0204193 16.52510074 123.27824402 16.52812195 C122.17060699 16.53238693 121.06296997 16.53665192 119.92176819 16.54104614 C118.70094543 16.54059296 117.48012268 16.54013977 116.2223053 16.53967285 C114.9409671 16.54303146 113.65962891 16.54639008 112.33946228 16.54985046 C108.81875851 16.55870076 105.29807903 16.56102903 101.77736521 16.56166625 C98.83998128 16.56261475 95.90260303 16.56629242 92.96522129 16.56983835 C86.03528804 16.57798705 79.10536779 16.58042223 72.1754303 16.57971191 C65.02384789 16.57911121 57.87234094 16.58966066 50.72077763 16.60545558 C44.58399161 16.61852692 38.44723025 16.62389597 32.31043041 16.6232565 C28.64383283 16.62300137 24.97730226 16.62586099 21.31071854 16.63643456 C17.22129909 16.64790495 13.13204885 16.64337121 9.0426178 16.6373291 C7.82584351 16.64294861 6.60906921 16.64856812 5.35542297 16.65435791 C4.2421463 16.65016342 3.12886963 16.64596893 1.9818573 16.64164734 C0.53116443 16.64246449 0.53116443 16.64246449 -0.94883537 16.64329815 C-3.62401694 16.38199608 -5.2317301 15.81375758 -7.49693298 14.39440918 C-9.59372701 11.69853115 -9.49204119 10.30146518 -9.30943298 6.83190918 C-7.9332266 1.00949756 -5.81920419 0.02180828 0 0 Z " fill="#000000" transform="translate(67.49693298339844,265.6055908203125)"/>
<path d="M0 0 C1.09073822 -0.00426498 2.18147644 -0.00852997 3.30526733 -0.01292419 C5.10069977 -0.01224442 5.10069977 -0.01224442 6.93240356 -0.0115509 C8.19277435 -0.01490952 9.45314514 -0.01826813 10.75170898 -0.02172852 C14.21043928 -0.03056761 17.66914484 -0.0329066 21.12788534 -0.0335443 C24.01551866 -0.0344938 26.90314622 -0.0381726 29.79077733 -0.0417164 C36.60426508 -0.04986075 43.41773962 -0.05230066 50.23123169 -0.05158997 C57.25841547 -0.05098929 64.28552245 -0.06153919 71.3126868 -0.07733363 C77.34674944 -0.0904124 83.380787 -0.09577372 89.41486371 -0.09513456 C93.01832155 -0.09487965 96.62171116 -0.09772666 100.22515488 -0.10831261 C104.24481194 -0.11979868 108.26429714 -0.11524471 112.28396606 -0.10920715 C113.47687256 -0.11482666 114.66977905 -0.12044617 115.89883423 -0.12623596 C117.54340103 -0.11994423 117.54340103 -0.11994423 119.22119141 -0.11352539 C120.17135069 -0.11407016 121.12150997 -0.11461493 122.10046196 -0.1151762 C125.02647818 0.1609788 127.12552964 0.79110596 129.73757935 2.13371277 C132.07926698 5.64624423 132.23381612 6.99840632 131.73757935 11.13371277 C128.74158333 15.89120614 128.74158333 15.89120614 125.13259888 16.76291847 C124.13857056 16.7648036 123.14454224 16.76668873 122.12039185 16.76863098 C120.97634888 16.7827301 119.83230591 16.79682922 118.65359497 16.81135559 C116.77704224 16.79617386 116.77704224 16.79617386 114.86257935 16.78068542 C113.52858283 16.7874624 112.19459567 16.79636599 110.86062622 16.80723572 C107.24064186 16.83002721 103.62137008 16.82119408 100.00137329 16.80534029 C96.21290162 16.79268018 92.42449091 16.80442169 88.63601685 16.81227112 C82.27392625 16.82136743 75.91212588 16.80938052 69.55007935 16.78556824 C62.19489281 16.75835666 54.84039924 16.76717086 47.48522949 16.79470026 C41.17000395 16.81739112 34.85498702 16.82059165 28.53973389 16.80750692 C24.76800172 16.79971214 20.99659527 16.79867114 17.22488403 16.81518936 C13.67873707 16.82963494 10.13348333 16.81961275 6.58743286 16.79071808 C4.66548897 16.78095422 2.74346952 16.79580694 0.82156372 16.81135559 C-0.32247925 16.79725647 -1.46652222 16.78315735 -2.64523315 16.76863098 C-4.13627563 16.76580329 -4.13627563 16.76580329 -5.65744019 16.76291847 C-9.28203451 15.88743574 -10.34988948 14.25753098 -12.26242065 11.13371277 C-12.2006455 7.55075366 -12.03082229 5.18153319 -9.88742065 2.25871277 C-6.67697931 0.03609953 -3.77221803 0.00665854 0 0 Z " fill="#000000" transform="translate(70.26242065429688,292.8662872314453)"/>
<path d="M0 0 C1.9375 1.625 1.9375 1.625 3 4 C3.48964109 9.609277 2.27998589 13.32768855 -0.41015625 18.13671875 C-0.76926086 18.80628098 -1.12836548 19.4758432 -1.49835205 20.16569519 C-2.67261547 22.3474186 -3.86697583 24.51736535 -5.0625 26.6875 C-5.88236713 28.19804531 -6.70095779 29.70928409 -7.51831055 31.22119141 C-9.18783936 34.30653619 -10.86454242 37.38783901 -12.54492188 40.46728516 C-14.86300245 44.72910423 -17.11959213 49.02086205 -19.359375 53.32421875 C-20.35951668 55.23497916 -21.36060632 57.1452396 -22.36203003 59.05532837 C-23.29383083 60.83925793 -24.21647141 62.6279626 -25.13891602 64.41674805 C-25.70795654 65.49351807 -26.27699707 66.57028809 -26.86328125 67.6796875 C-27.35094971 68.61538574 -27.83861816 69.55108398 -28.34106445 70.51513672 C-30.24954403 73.37378353 -32.13799883 75.10593499 -35 77 C-39.16162002 77.05086424 -41.23591879 76.61871356 -44.484375 73.98828125 C-45.60585938 72.66376953 -45.60585938 72.66376953 -46.75 71.3125 C-47.59820312 70.31992188 -48.44640625 69.32734375 -49.3203125 68.3046875 C-50.21757953 67.2064115 -51.11069778 66.1047352 -52 65 C-52.45987305 64.42926758 -52.91974609 63.85853516 -53.39355469 63.27050781 C-55.75044465 60.3264342 -58.07491585 57.35971975 -60.375 54.37109375 C-63.3061448 50.5707055 -66.40428921 46.91502802 -69.5390625 43.28125 C-71.33000761 40.48469399 -71.75508144 38.29526785 -72 35 C-70.76356597 32.13667909 -69.66847461 30.50711867 -67.1875 28.625 C-64.00774912 27.71649975 -62.18956791 28.06778329 -59 29 C-56.70666499 30.91640472 -54.91436112 33.16358768 -53.0625 35.5 C-52.54252441 36.13059326 -52.02254883 36.76118652 -51.48681641 37.41088867 C-47.99420678 41.67039406 -44.59008176 46.00439245 -41.3046875 50.42578125 C-40.06697902 52.13454489 -40.06697902 52.13454489 -38 53 C-37.60167969 51.95428833 -37.60167969 51.95428833 -37.1953125 50.88745117 C-35.90282835 47.76526774 -34.42457627 44.80376097 -32.875 41.80078125 C-32.57173294 41.21216309 -32.26846588 40.62354492 -31.95600891 40.01708984 C-30.97382525 38.1139087 -29.98756064 36.21289616 -29 34.3125 C-28.66463226 33.6667099 -28.32926453 33.0209198 -27.98373413 32.3555603 C-25.66658613 27.89803756 -23.33664128 23.44733048 -21 19 C-20.46584473 17.98164063 -19.93168945 16.96328125 -19.38134766 15.9140625 C-18.03965532 13.37200336 -16.68125439 10.8400657 -15.3125 8.3125 C-14.92771484 7.58393799 -14.54292969 6.85537598 -14.14648438 6.10473633 C-12.67719488 3.43428303 -11.45657231 1.32674545 -8.953125 -0.46484375 C-5.71436886 -1.35226293 -3.21321253 -0.81790864 0 0 Z " fill="#000000" transform="translate(353,124)"/>
</svg>
